PathFileType	4	(X/Y/Z)	OpenSim_Sub06_CSBaseline_Magnet.trc
DataRate	CameraRate	NumFrames	NumMarkers	Units	OrigDataRate	OrigDataStartFrame	OrigNumFrames
100	100	27	8	m	100	1	8492
Frame#	Time	torso_imu_offset_imu	pelvis_imu_offset_imu	tibia_r_imu_offset_imu	femur_r_imu_offset_imu	tibia_l_imu_offset_imu	femur_l_imu_offset_imu	toes_r_imu_offset_imu	toes_l_imu_offset_imu
				X1	Y1	Z1	X2	Y2	Z2	X3	Y3	Z3	X4	Y4	Z4	X5	Y5	Z5	X6	Y6	Z6	X7	Y7	Z7	X8		Y8	Z8	

1	0	-0.94447947	-0.17114196	0.03161236	-0.52972944	0.24718448	-0.73741770	-0.53681206	-0.57408966	-0.29112887	-0.73304619	-0.41340567	0.05414129	-0.64425265	0.52882901	0.09743758	-0.37292460	0.33144038	0.45110695	-0.58394768	-0.28220457	-0.55882783	-0.73165312	-0.03937726	-0.45061716
2	0.01000000	-0.94194482	-0.17320224	0.03022363	-0.52791203	0.25560989	-0.73540891	-0.53253877	-0.57741675	-0.29451379	-0.72949360	-0.41275007	0.05219797	-0.64926115	0.53529133	0.09438734	-0.37243129	0.32959345	0.44208522	-0.58006550	-0.28589639	-0.56330560	-0.72479141	-0.04315113	-0.45609701
3	0.02000000	-0.94829574	-0.17367116	0.02541269	-0.52962955	0.25262832	-0.73935493	-0.53222984	-0.57802293	-0.29968674	-0.72690862	-0.41713956	0.04765034	-0.64724447	0.53174184	0.10159920	-0.37270643	0.32917724	0.45210025	-0.58172512	-0.28838635	-0.56169470	-0.73071682	-0.04599500	-0.45387905
4	0.03000000	-0.94689994	-0.17168951	0.02516415	-0.52968812	0.24949721	-0.74255664	-0.53190828	-0.57777338	-0.29602268	-0.72663570	-0.41357115	0.04721766	-0.64683599	0.52690522	0.09150462	-0.37049464	0.33137738	0.45335936	-0.57814122	-0.28633886	-0.55908067	-0.72937623	-0.04373327	-0.45604567
5	0.04000000	-0.94461192	-0.17081017	0.02320974	-0.53192762	0.25386597	-0.73385925	-0.53812602	-0.57816956	-0.28856894	-0.73041814	-0.41259888	0.04926376	-0.64725200	0.52888678	0.09202250	-0.37039994	0.33165360	0.45320107	-0.57704122	-0.28597189	-0.56356047	-0.73127699	-0.04579497	-0.45374917
6	0.05000000	-0.94198658	-0.17802099	0.02278639	-0.52997415	0.24994054	-0.73000584	-0.53717911	-0.57380830	-0.29488781	-0.73494788	-0.41900256	0.05195384	-0.64279006	0.52734853	0.09894231	-0.37007381	0.32966239	0.45098473	-0.58557146	-0.28817541	-0.55740116	-0.72692694	-0.04395781	-0.45822034
7	0.06000000	-0.94657667	-0.16725016	0.02910855	-0.52980118	0.25344025	-0.73912310	-0.53226756	-0.57751585	-0.29509031	-0.73349324	-0.41539475	0.04990953	-0.64431606	0.52398636	0.09981977	-0.37467477	0.32708812	0.45134562	-0.58225114	-0.28838885	-0.56266256	-0.73107164	-0.04349520	-0.45224154
8	0.07000000	-0.94443219	-0.17702033	0.02817129	-0.52953334	0.25422740	-0.74258051	-0.53615305	-0.57790591	-0.29766576	-0.73099096	-0.41515754	0.04741090	-0.64489901	0.53301892	0.09714463	-0.37072258	0.33099824	0.44421953	-0.58165019	-0.28682324	-0.56581054	-0.73112377	-0.04587119	-0.45152328
9	0.08000000	-0.94654918	-0.17219091	0.02293971	-0.53380154	0.25005666	-0.73993626	-0.53843913	-0.57814237	-0.29070169	-0.73138236	-0.41118789	0.04914861	-0.64698031	0.52924549	0.09688903	-0.37061094	0.33394416	0.45038990	-0.58205211	-0.28214842	-0.55962553	-0.73373889	-0.04388880	-0.45163195
10	0.09000000	-0.94262856	-0.17095611	0.02713036	-0.53193949	0.24959316	-0.73971502	-0.53911434	-0.57378453	-0.29949122	-0.72876216	-0.41253771	0.05204554	-0.64482134	0.52900337	0.10118912	-0.36836455	0.32971774	0.44911515	-0.58040173	-0.28790734	-0.56117122	-0.72933197	-0.04369504	-0.45190893
11	0.10000000	-0.94416731	-0.17533835	0.02374486	-0.53452559	0.25171245	-0.73808075	-0.53288068	-0.57763810	-0.29318940	-0.73495947	-0.41728915	0.04549183	-0.64690368	0.52439570	0.10206961	-0.36815627	0.33325921	0.45004395	-0.57363467	-0.28649998	-0.55935238	-0.73345932	-0.04353923	-0.44891285
12	0.11000000	-0.94412875	-0.17540131	0.02095473	-0.52589185	0.25378117	-0.73279177	-0.52862933	-0.57583908	-0.29961778	-0.72949028	-0.41318294	0.04893906	-0.64488286	0.53053994	0.09926448	-0.36799681	0.33417836	0.45994535	-0.57903563	-0.28598012	-0.56139064	-0.72947477	-0.04595564	-0.45597876
13	0.12000000	-0.94835708	-0.17930036	0.02151185	-0.53168953	0.25400310	-0.73953627	-0.52753921	-0.57762464	-0.29311466	-0.73062584	-0.41702750	0.05046584	-0.64673396	0.52912912	0.10350915	-0.37044212	0.32925996	0.44975523	-0.58222676	-0.29036719	-0.55714208	-0.72899966	-0.04190535	-0.44944288
14	0.13000000	-0.94464450	-0.18161435	0.01691281	-0.52779642	0.25364048	-0.73782606	-0.53604921	-0.57803292	-0.30139399	-0.73116090	-0.41501442	0.04253783	-0.64710255	0.52870858	0.10022086	-0.36788149	0.33389625	0.44831945	-0.57573032	-0.28461261	-0.56295197	-0.73129679	-0.04127997	-0.45561851
15	0.14000000	-0.94184640	-0.18423207	0.02095113	-0.53585095	0.25789704	-0.73786593	-0.53265499	-0.57592585	-0.29812843	-0.72886901	-0.41908765	0.05367727	-0.64669166	0.52907062	0.09282401	-0.37616064	0.32535702	0.45096053	-0.58150787	-0.28596484	-0.56348603	-0.73156531	-0.04360476	-0.45213773
16	0.15000000	-0.94386353	-0.17982631	0.01929023	-0.53269283	0.25617707	-0.73536714	-0.53636105	-0.57386081	-0.29756181	-0.72901855	-0.41523462	0.05029768	-0.64957045	0.52882501	0.09708362	-0.37335902	0.33085462	0.45048748	-0.57783616	-0.28830224	-0.56538329	-0.72950815	-0.04358939	-0.45162027
17	0.16000000	-0.94433607	-0.18362693	0.01905918	-0.53224238	0.25803183	-0.73779839	-0.53309417	-0.57360800	-0.29727071	-0.72858109	-0.41874025	0.04754513	-0.64054389	0.52738265	0.09281558	-0.36805596	0.33013548	0.45763878	-0.58149995	-0.28821043	-0.56354348	-0.72862984	-0.04584311	-0.45134557
18	0.17000000	-0.94174039	-0.18432713	0.01713163	-0.53010146	0.25602224	-0.73517860	-0.52999299	-0.57551361	-0.30380290	-0.73256622	-0.41800759	0.04758573	-0.64587519	0.52198845	0.09910767	-0.37226719	0.32438651	0.45147974	-0.57977738	-0.29025783	-0.56532017	-0.73370454	-0.04390696	-0.45616139
19	0.18000000	-0.94619320	-0.18195054	0.01480557	-0.53204706	0.26012017	-0.74039740	-0.53612265	-0.57584665	-0.30235591	-0.73328094	-0.40918413	0.04483646	-0.64954156	0.53053394	0.09755445	-0.36840499	0.33747437	0.45108163	-0.58002186	-0.28701520	-0.56374046	-0.72726621	-0.04365048	-0.44951885
20	0.19000000	-0.94218453	-0.18209833	0.01445525	-0.53215557	0.25648646	-0.73121415	-0.53681446	-0.57377738	-0.30009488	-0.73130423	-0.41434532	0.04922415	-0.64709079	0.52704068	0.09691734	-0.37437156	0.33061487	0.44656462	-0.57579200	-0.28210323	-0.56174715	-0.72892570	-0.04369931	-0.45513446
21	0.20000000	-0.94547274	-0.17794225	0.01668811	-0.53429209	0.25748877	-0.73682432	-0.53633914	-0.57544322	-0.29581043	-0.72855990	-0.41717372	0.04787243	-0.64717223	0.52839944	0.09938823	-0.37243831	0.32459682	0.45250003	-0.57945046	-0.28789806	-0.55940417	-0.72928419	-0.04375827	-0.45880353
22	0.21000000	-0.95103161	-0.17965153	0.01420706	-0.53270084	0.26251424	-0.74063333	-0.54058031	-0.57596080	-0.29496216	-0.73296132	-0.41745210	0.04477683	-0.64285678	0.52947888	0.09720049	-0.37477603	0.33135478	0.45503711	-0.57990311	-0.28676016	-0.56093546	-0.73102470	-0.04187200	-0.45143338
23	0.22000000	-0.94083220	-0.17995097	0.02080809	-0.52797803	0.25811987	-0.73363631	-0.53742906	-0.57178954	-0.30178879	-0.72709671	-0.41340635	0.05174164	-0.64412894	0.52429498	0.09951270	-0.37054908	0.32728834	0.45813954	-0.57993695	-0.28430915	-0.56353895	-0.73414959	-0.03909373	-0.46236232
24	0.23000000	-0.93954789	-0.17756998	0.01754346	-0.52999729	0.26238234	-0.73332311	-0.53030881	-0.57319316	-0.30050100	-0.73061981	-0.41294969	0.04346758	-0.64700449	0.53096899	0.09720588	-0.37120563	0.33301540	0.44915776	-0.57775146	-0.28400280	-0.56124749	-0.72729243	-0.04531972	-0.45657172
25	0.24000000	-0.94365905	-0.18179436	0.01015481	-0.53185804	0.25802271	-0.73118494	-0.53603570	-0.57793043	-0.29328857	-0.72905935	-0.41473877	0.04450674	-0.64306434	0.52544991	0.09712678	-0.35975210	0.33451817	0.45440971	-0.57939842	-0.28636347	-0.56366417	-0.72852411	-0.04626474	-0.45995100
26	0.25000000	-0.94645699	-0.17802594	0.01642377	-0.53511469	0.26432663	-0.72835684	-0.53685058	-0.57222870	-0.29501887	-0.72861626	-0.41733727	0.04965065	-0.63769633	0.52232511	0.09971524	-0.36735636	0.32768046	0.45817047	-0.58234505	-0.28428610	-0.55741340	-0.73150407	-0.04179951	-0.45888826
27	0.26000000	-0.94229988	-0.17943874	0.01071061	-0.52586253	0.25661963	-0.73712903	-0.53645949	-0.56935503	-0.29586114	-0.72921567	-0.41338323	0.04777739	-0.64621133	0.52454149	0.09554495	-0.36654427	0.32947222	0.45125940	-0.57586062	-0.28591129	-0.56090952	-0.72928413	-0.04139645	-0.45211562
